<svg width="227" height="227" xmlns="http://www.w3.org/2000/svg" xmlns:xlink="http://www.w3.org/1999/xlink" xml:space="preserve" overflow="hidden"><defs><filter id="fx0" x="-10%" y="-10%" width="120%" height="120%" filterUnits="userSpaceOnUse" primitiveUnits="userSpaceOnUse"><feComponentTransfer color-interpolation-filters="sRGB"><feFuncR type="discrete" tableValues="0 0"/><feFuncG type="discrete" tableValues="0 0"/><feFuncB type="discrete" tableValues="0 0"/><feFuncA type="linear" slope="0.4" intercept="0"/></feComponentTransfer><feGaussianBlur stdDeviation="1.77778 1.77778"/></filter><clipPath id="clip1"><rect x="484" y="200" width="227" height="227"/></clipPath><clipPath id="clip2"><rect x="56" y="36" width="116" height="140"/></clipPath><clipPath id="clip3"><rect x="0" y="0" width="229" height="230"/></clipPath><clipPath id="clip4"><path d="M75.5337 7.49345 222.143 76.297 153.339 222.906 6.73019 154.103Z" fill-rule="evenodd" clip-rule="evenodd"/></clipPath><clipPath id="clip5"><path d="M75.5337 7.49345 222.143 76.297 153.339 222.906 6.73019 154.103Z" fill-rule="evenodd" clip-rule="evenodd"/></clipPath><clipPath id="clip6"><path d="M75.5337 7.49345 222.143 76.297 153.339 222.906 6.73019 154.103Z" fill-rule="evenodd" clip-rule="evenodd"/></clipPath><clipPath id="clip7"><path d="M555.705 202.665 702.315 271.469 633.511 418.078 486.902 349.274Z" fill-rule="evenodd" clip-rule="evenodd"/></clipPath><clipPath id="clip8"><path d="M555.705 202.665 702.315 271.469 633.511 418.078 486.902 349.274Z" fill-rule="evenodd" clip-rule="evenodd"/></clipPath><clipPath id="clip9"><path d="M555.705 202.665 702.315 271.469 633.511 418.078 486.902 349.274Z" fill-rule="evenodd" clip-rule="evenodd"/></clipPath></defs><g clip-path="url(#clip1)" transform="translate(-484 -200)"><g clip-path="url(#clip2)" filter="url(#fx0)" transform="translate(483 198)"><g clip-path="url(#clip3)"><g clip-path="url(#clip4)"><g clip-path="url(#clip5)"><g clip-path="url(#clip6)"><path d="M-419.329-30.2197-376.012-78.8416-401.974-91.0255-357.035-153.347-318.611-135.315-358.248-92.8675-332.286-80.6835-419.329-30.2197Z" fill="#FFC000"/></g></g></g></g></g><g clip-path="url(#clip7)"><g clip-path="url(#clip8)"><g clip-path="url(#clip9)"><path d="M543.843 362.952 587.16 314.33 561.198 302.146 606.136 239.824 644.56 257.856 604.923 300.304 630.885 312.488 543.843 362.952Z" fill="#FFC000"/></g></g></g></g></svg>